<svg xmlns="http://www.w3.org/2000/svg" xmlns:xlink="http://www.w3.org/1999/xlink" viewBox="0 0 86.48 73.12">
  <defs>
    <style>
      .a, .b, .c {
        fill: #062c3e;
        stroke-width: 1.2px;
      }

      .a {
        stroke: url(#a);
      }

      .b {
        stroke: url(#b);
      }

      .c {
        stroke: url(#c);
      }

      .d {
        fill: #020e15;
      }

      .e {
        fill: #083a53;
      }

      .f {
        fill: #007acc;
      }
    </style>
    <linearGradient id="a" x1="4.24" y1="939.81" x2="45.39" y2="939.81" gradientTransform="translate(-3.64 -880.16)" gradientUnits="userSpaceOnUse">
      <stop offset="0" stop-color="#007acc"/>
      <stop offset="1" stop-opacity="0"/>
    </linearGradient>
    <linearGradient id="b" x1="4.24" y1="933.83" x2="45.39" y2="933.83" xlink:href="#a"/>
    <linearGradient id="c" x1="4.24" y1="923.46" x2="45.39" y2="923.46" xlink:href="#a"/>
  </defs>
  <title>logoAsset 1</title>
  <g>
    <path class="a" d="M28.88,72.52A12.85,12.85,0,1,1,38,68.75,12.88,12.88,0,0,1,28.88,72.52Z"/>
    <path class="b" d="M10.32,63.38a9.71,9.71,0,1,1,6.86-2.84A9.72,9.72,0,0,1,10.32,63.38Z"/>
    <path class="c" d="M23.66,58.42A15.12,15.12,0,1,1,34.35,54,15.13,15.13,0,0,1,23.66,58.42Z"/>
    <path class="d" d="M67.27,4,45,26,32.47,16.54,17.61,21.49l16,15.8-16,15.8,14.86,5L45,48.59l22.25,22,19.21-8.17V12.16Zm1,45.29L52,37.25h0l16.29-12Z"/>
    <path class="e" d="M63.27,0,41,22,28.47,12.54,13.61,17.49l16,15.8-16,15.8,14.86,5L41,44.59l22.25,22,19.21-8.17V8.16Zm1,45.29L48,33.25h0l16.29-12Z"/>
    <path class="f" d="M41.42,37.66,27.65,48,22,46.14,36,32.29,22,18.45l5.67-1.9L41.42,26.92,64.29,4.32,78,10.14V54.45L64.29,60.26Zm7.13-5.37L64.28,44.14V20.45Z"/>
  </g>
</svg>
